<svg xmlns="http://www.w3.org/2000/svg" version="1.1" xmlns:xlink="http://www.w3.org/1999/xlink" xmlns:svgjs="http://svgjs.dev/svgjs" width="128" height="128" viewBox="0 0 128 128"><g transform="matrix(0.8046875,0,0,0.8046875,12.760752631578946,13.223094181051096)"><svg viewBox="0 0 95 94" data-background-color="#ffffff" preserveAspectRatio="xMidYMid meet" height="126" width="128" xmlns="http://www.w3.org/2000/svg" xmlns:xlink="http://www.w3.org/1999/xlink"><defs></defs><g id="tight-bounds" transform="matrix(1,0,0,1,-0.24049999999999727,0.07564577081161872)"><svg viewBox="0 0 95.481 93.84870845837675" height="93.84870845837675" width="95.481"><g><svg viewBox="0 0 95.481 93.84870845837675" height="93.84870845837675" width="95.481"><g><svg viewBox="0 0 95.481 93.84870845837675" height="93.84870845837675" width="95.481"><g><svg viewBox="0 0 95.481 93.84870845837675" height="93.84870845837675" width="95.481"><g><svg viewBox="0 0 95.481 93.84870845837675" height="93.84870845837675" width="95.481"><g><svg viewBox="0 0 95.481 93.84870845837675" height="93.84870845837675" width="95.481"><g><svg xmlns="http://www.w3.org/2000/svg" xmlns:xlink="http://www.w3.org/1999/xlink" version="1.1" x="0" y="0" viewBox="0 1.709 100.0005554169384 98.291" enable-background="new 0 0 100 100" xml:space="preserve" width="95.481" height="93.84870845837675" class="icon-icon-0" data-fill-palette-color="accent" id="icon-0"><path d="M20.043 2.343L12.19 6.091l34.903 35.125L20.582 55.568l-15.164-8.26L0 49.938l12.677 13.867 3.099 18.641 5.417-2.63 2.896-17.023 27.826-11.643L57.763 100l7.853-3.748 9.288-55.385c5.239-2.423 12.811-6.162 18.003-8.683 6.483-3.146 8.109-7.057 6.536-10.298-1.573-3.242-5.749-4.587-12.232-1.44-5.192 2.52-12.718 6.355-17.863 8.972L21.221 1.709" fill="#0080ff" data-fill-palette-color="accent"></path></svg></g></svg></g></svg></g></svg></g></svg></g></svg></g></svg><rect width="95.481" height="93.84870845837675" fill="none" stroke="none" visibility="hidden"></rect></g></svg></g></svg>