<svg xmlns="http://www.w3.org/2000/svg" version="1.1" xmlns:xlink="http://www.w3.org/1999/xlink" xmlns:svgjs="http://svgjs.dev/svgjs" width="1000" height="212" viewBox="0 0 1000 212"><g transform="matrix(1,0,0,1,-0.6060606060606233,0.08823603538378677)"><svg viewBox="0 0 396 84" data-background-color="#ffffff" preserveAspectRatio="xMidYMid meet" height="212" width="1000" xmlns="http://www.w3.org/2000/svg" xmlns:xlink="http://www.w3.org/1999/xlink"><defs></defs><g id="tight-bounds" transform="matrix(1,0,0,1,0.2400000000000091,-0.03496144798225487)"><svg viewBox="0 0 395.52 84.06989882452544" height="84.06989882452544" width="395.52"><g><svg viewBox="0 0 533.6114022075949 113.42196752428615" height="84.06989882452544" width="395.52"><g transform="matrix(1,0,0,1,138.09140220759494,35.811413553135125)"><svg viewBox="0 0 395.52 41.7991404180159" height="41.7991404180159" width="395.52"><g><svg viewBox="0 0 395.52 41.7991404180159" height="41.7991404180159" width="395.52"><g><svg viewBox="0 0 395.52 41.7991404180159" height="41.7991404180159" width="395.52"><g transform="matrix(1,0,0,1,0,0)"><svg width="395.52" viewBox="4.6 -35.45 339.66999999999996 35.900000000000006" height="41.7991404180159" data-palette-color="#fff"><path d="M6.4 0L4.6 0 4.6-35 24.65-35 24.65-33.3 6.4-33.3 6.4-17.5 22.1-17.5 22.1-15.8 6.4-15.8 6.4 0ZM49.6-1.7L49.6 0 30.75 0 30.75-35 32.55-35 32.55-1.7 49.6-1.7ZM56.7 0L54.9 0 54.9-35 56.7-35 56.7 0ZM86.84-15.65L79.34-15.65 79.34-17.35 88.64-17.35 88.64-0.8Q82.19 0.45 77.64 0.45L77.64 0.45Q70.29 0.45 67.42-4 64.54-8.45 64.54-17.35L64.54-17.35Q64.54-21.7 65.12-24.83 65.69-27.95 67.09-30.45L67.09-30.45Q69.89-35.45 77.64-35.45L77.64-35.45Q82.09-35.45 87.09-34.5L87.09-34.5 88.64-34.2 88.49-32.45Q82.19-33.75 78.19-33.75 74.19-33.75 71.94-32.65 69.69-31.55 68.52-29.25 67.34-26.95 66.89-24.18 66.44-21.4 66.44-17.38 66.44-13.35 66.92-10.58 67.39-7.8 68.59-5.6L68.59-5.6Q70.94-1.25 77.64-1.25L77.64-1.25Q81.34-1.25 86.84-2.25L86.84-2.25 86.84-15.65ZM121.34 0L119.54 0 119.54-16.7 98.64-16.7 98.64 0 96.84 0 96.84-35 98.64-35 98.64-18.4 119.54-18.4 119.54-35 121.34-35 121.34 0ZM138.24-33.3L126.59-33.3 126.59-35 151.59-35 151.59-33.3 140.04-33.3 140.04 0 138.24 0 138.24-33.3ZM167.83 0L167.83-35 179.83-35Q189.93-35 189.93-26.35L189.93-26.35Q189.93-19.85 185.08-18.05L185.08-18.05Q191.28-16.35 191.28-9.65L191.28-9.65Q191.28-4.25 188.61-2.13 185.93 0 180.78 0L180.78 0 167.83 0ZM180.38-17.05L180.38-17.05 169.63-17.05 169.63-1.7 180.78-1.7Q184.93-1.7 187.18-3.48 189.43-5.25 189.43-9.65L189.43-9.65Q189.43-17.05 180.38-17.05ZM179.83-33.3L179.83-33.3 169.63-33.3 169.63-18.75 180.38-18.75Q184.43-18.75 186.26-20.6 188.08-22.45 188.08-26.2 188.08-29.95 186.08-31.63 184.08-33.3 179.83-33.3ZM201.51-5.43Q202.73-3.25 205.03-2.25 207.33-1.25 210.91-1.25 214.48-1.25 216.76-2.18 219.03-3.1 220.26-5.23 221.48-7.35 221.93-10.15 222.38-12.95 222.38-17.35L222.38-17.35Q222.38-25.75 219.96-29.75 217.53-33.75 210.88-33.75L210.88-33.75Q203.93-33.75 201.53-29.4L201.53-29.4Q200.33-27.2 199.86-24.38 199.38-21.55 199.38-17.32 199.38-13.1 199.83-10.35 200.28-7.6 201.51-5.43ZM200.13-4.1L200.13-4.1Q198.63-6.5 198.06-9.63 197.48-12.75 197.48-17.35L197.48-17.35Q197.48-26.55 200.38-31 203.28-35.45 210.88-35.45 218.48-35.45 221.38-31.03 224.28-26.6 224.28-17.2 224.28-7.8 221.46-3.68 218.63 0.45 210.78 0.45 202.93 0.45 200.13-4.1ZM234.8-5.43Q236.03-3.25 238.33-2.25 240.63-1.25 244.2-1.25 247.78-1.25 250.05-2.18 252.33-3.1 253.55-5.23 254.78-7.35 255.23-10.15 255.68-12.95 255.68-17.35L255.68-17.35Q255.68-25.75 253.25-29.75 250.83-33.75 244.18-33.75L244.18-33.75Q237.23-33.75 234.83-29.4L234.83-29.4Q233.63-27.2 233.15-24.38 232.68-21.55 232.68-17.32 232.68-13.1 233.13-10.35 233.58-7.6 234.8-5.43ZM233.43-4.1L233.43-4.1Q231.93-6.5 231.35-9.63 230.78-12.75 230.78-17.35L230.78-17.35Q230.78-26.55 233.68-31 236.58-35.45 244.18-35.45 251.78-35.45 254.68-31.03 257.58-26.6 257.58-17.2 257.58-7.8 254.75-3.68 251.93 0.45 244.08 0.45 236.23 0.45 233.43-4.1ZM273.78-16.45L267.23-16.45 267.23 0 265.43 0 265.43-35 267.23-35 267.23-18.15 273.68-18.15 284.68-35 286.83-35 275.28-17.4 287.63 0 285.33 0 273.78-16.45ZM313.52 0L293.07 0 293.07-35 313.52-35 313.52-33.3 294.87-33.3 294.87-18.75 310.52-18.75 310.52-17.05 294.87-17.05 294.87-1.7 313.52-1.7 313.52 0ZM334.42-14.5L322.47-14.5 322.47 0 320.67 0 320.67-35 333.22-35Q338.52-35 341.07-32.6 343.62-30.2 343.62-25L343.62-25Q343.62-16.15 336.37-14.75L336.37-14.75 344.27 0 342.22 0 334.42-14.5ZM341.72-25L341.72-25Q341.72-29.35 339.67-31.33 337.62-33.3 333.22-33.3L333.22-33.3 322.47-33.3 322.47-16.2 333.22-16.2Q341.72-16.2 341.72-25Z" opacity="1" transform="matrix(1,0,0,1,0,0)" fill="#fff" class="undefined-text-0" data-fill-palette-color="primary" id="text-0"></path></svg></g></svg></g></svg></g></svg></g><g><svg viewBox="0 0 113.42196752428615 113.42196752428615" height="113.42196752428615" width="113.42196752428615"><g><svg viewBox="0 0 113.42196752428615 113.42196752428615" height="113.42196752428615" width="113.42196752428615"><g transform="matrix(1,0,0,1,29.970130078902645,30.42727725250722)"><svg viewBox="0 0 53.481707366480855 52.567413019271704" height="52.567413019271704" width="53.481707366480855"><g><svg xmlns="http://www.w3.org/2000/svg" xmlns:xlink="http://www.w3.org/1999/xlink" version="1.1" x="0" y="0" viewBox="0 1.709 100.0005554169384 98.291" enable-background="new 0 0 100 100" xml:space="preserve" width="53.481707366480855" height="52.567413019271704" class="icon-fi-0" data-fill-palette-color="accent" id="fi-0"><path d="M20.043 2.343L12.19 6.091l34.903 35.125L20.582 55.568l-15.164-8.26L0 49.938l12.677 13.867 3.099 18.641 5.417-2.63 2.896-17.023 27.826-11.643L57.763 100l7.853-3.748 9.288-55.385c5.239-2.423 12.811-6.162 18.003-8.683 6.483-3.146 8.109-7.057 6.536-10.298-1.573-3.242-5.749-4.587-12.232-1.44-5.192 2.52-12.718 6.355-17.863 8.972L21.221 1.709" fill="#fff" data-fill-palette-color="accent"></path></svg></g></svg></g><path d="M9.935 43.858l-0.143 0.448-8.628-2.751 1.577-4.947 0.419 0.134-1.435 4.499 3.891 1.241 1.234-3.872 0.419 0.133-1.234 3.872zM15.524 30.55l0.383 0.215-2.386 4.26-7.901-4.426 0.23-0.409 7.517 4.211zM19.089 26.575l-0.289 0.369-7.136-5.575 0.288-0.37zM24.41 15.842l-1.454 1.281-0.29-0.33 1.805-1.59 2.832 3.213c-0.689 0.9-1.328 1.609-1.917 2.129v0c-0.954 0.84-1.871 1.134-2.751 0.88-0.881-0.244-1.829-0.943-2.846-2.097v0c-0.497-0.564-0.887-1.082-1.168-1.552-0.282-0.471-0.473-0.945-0.575-1.423v0c-0.207-0.97 0.191-1.898 1.195-2.783v0c0.574-0.506 1.241-0.983 2-1.43v0l0.346-0.211 0.274 0.371c-0.964 0.547-1.705 1.05-2.225 1.507-0.519 0.458-0.86 0.886-1.022 1.287-0.166 0.395-0.195 0.811-0.086 1.247 0.11 0.427 0.293 0.846 0.55 1.258 0.262 0.408 0.624 0.874 1.086 1.399 0.458 0.519 0.875 0.932 1.251 1.239 0.377 0.307 0.768 0.534 1.174 0.683v0c0.802 0.296 1.637 0.061 2.506-0.705v0c0.479-0.422 1.017-1.011 1.612-1.766v0zM37.498 12.75l-0.405 0.217-2.044-3.809-4.768 2.559 2.044 3.809-0.413 0.222-4.283-7.979 0.413-0.222 2.031 3.783 4.768-2.559-2.03-3.783 0.404-0.218zM42.544 2.181l-2.922 0.741-0.109-0.425 6.272-1.592 0.108 0.426-2.894 0.734 2.12 8.352-0.455 0.115zM58.918 9.025l0.751-9.025 3.095 0.257c1.738 0.145 2.545 0.96 2.421 2.446v0c-0.093 1.114-0.57 1.793-1.432 2.035v0c1.044 0.381 1.518 1.148 1.422 2.302v0c-0.077 0.929-0.36 1.556-0.848 1.884-0.495 0.326-1.183 0.453-2.065 0.379v0zM62.528 4.897v0l-2.776-0.231-0.329 3.96 2.875 0.239c0.716 0.06 1.28-0.047 1.69-0.32 0.41-0.273 0.647-0.788 0.709-1.544v0c0.106-1.274-0.617-1.975-2.169-2.104zM62.727 0.695v0l-2.627-0.218-0.312 3.751 2.776 0.231c0.697 0.058 1.214-0.059 1.553-0.352 0.338-0.292 0.534-0.76 0.587-1.404 0.054-0.643-0.08-1.125-0.401-1.446-0.315-0.313-0.84-0.501-1.576-0.562zM71.013 9.685c0.076 0.425 0.277 0.783 0.601 1.073 0.325 0.29 0.777 0.532 1.359 0.724 0.588 0.195 1.093 0.279 1.516 0.251 0.423-0.028 0.793-0.182 1.111-0.462 0.313-0.289 0.583-0.648 0.81-1.078 0.229-0.436 0.463-1.014 0.702-1.734v0c0.457-1.377 0.595-2.457 0.413-3.24-0.18-0.789-0.813-1.364-1.9-1.725v0c-1.143-0.38-2.029-0.278-2.658 0.306v0c-0.315 0.295-0.588 0.661-0.816 1.097-0.229 0.436-0.459 1.001-0.69 1.696-0.229 0.689-0.384 1.272-0.465 1.75-0.073 0.474-0.067 0.921 0.017 1.342zM70.562 9.903v0c-0.114-0.48-0.134-0.991-0.059-1.534 0.075-0.543 0.238-1.191 0.488-1.943v0c0.499-1.503 1.107-2.543 1.824-3.118 0.721-0.567 1.704-0.644 2.949-0.231 1.244 0.413 1.983 1.062 2.215 1.946 0.235 0.877 0.096 2.087-0.415 3.628-0.512 1.541-1.11 2.574-1.796 3.096-0.686 0.523-1.673 0.57-2.962 0.143-1.282-0.426-2.03-1.088-2.244-1.987zM82.06 14.478c-0.027 0.431 0.082 0.826 0.329 1.186 0.246 0.359 0.628 0.701 1.147 1.027 0.524 0.329 0.995 0.531 1.412 0.604 0.418 0.074 0.814 0.012 1.189-0.184 0.373-0.206 0.721-0.49 1.044-0.854 0.326-0.369 0.691-0.875 1.094-1.517v0c0.772-1.229 1.163-2.245 1.173-3.048 0.013-0.809-0.465-1.518-1.434-2.128v0c-1.02-0.641-1.905-0.753-2.655-0.336v0c-0.377 0.211-0.728 0.502-1.054 0.871-0.326 0.369-0.684 0.863-1.074 1.483-0.386 0.614-0.676 1.144-0.868 1.589-0.184 0.443-0.285 0.878-0.303 1.307zM81.57 14.583v0c0.003-0.493 0.106-0.995 0.308-1.504 0.202-0.51 0.514-1.1 0.936-1.771v0c0.843-1.341 1.681-2.206 2.515-2.594 0.836-0.379 1.809-0.22 2.918 0.478 1.11 0.698 1.673 1.503 1.689 2.417 0.019 0.908-0.404 2.05-1.268 3.425-0.864 1.375-1.691 2.235-2.481 2.58-0.79 0.345-1.76 0.156-2.911-0.567-1.144-0.719-1.713-1.54-1.706-2.464zM94.732 20.805l-1.194-1.206-3.023 2.993-0.33-0.334 6.435-6.372 0.331 0.334-3.094 3.063 1.173 1.185 5.096-1.041 0.393 0.397-5.335 1.082-0.952 5.439-0.422-0.426zM99.801 34.575l-2.866-4.448 7.613-4.905 2.866 4.448-0.369 0.238-2.612-4.054-3.164 2.039 2.195 3.408-0.369 0.238-2.196-3.408-3.34 2.152 2.612 4.054zM106.595 41.251l-1.069-2.905-3.523 1.296-0.162-0.441 8.499-3.126 1.124 3.055c0.315 0.856 0.354 1.561 0.118 2.116-0.236 0.555-0.775 0.987-1.618 1.298v0c-1.431 0.526-2.477 0.244-3.141-0.845v0l-2.873 3.237-0.183-0.497zM109.795 42.084v0c0.706-0.26 1.157-0.614 1.354-1.061 0.197-0.448 0.164-1.029-0.098-1.741v0l-0.961-2.615-4.152 1.527 0.962 2.615c0.505 1.374 1.47 1.8 2.895 1.275zM3.737 74.093l-0.142-0.447 8.74-2.792 1.598 5.003-0.428 0.136-1.455-4.555-3.947 1.26 1.252 3.919-0.419 0.134-1.251-3.919zM10.655 88.212l-0.392 0.22-2.417-4.311 8.004-4.487 0.229 0.409-7.612 4.267zM13.952 93.383l-0.289-0.37 7.234-5.646 0.289 0.37zM25.502 98.881l-1.475-1.302 0.297-0.337 1.827 1.613-2.874 3.256c-0.989-0.58-1.783-1.134-2.382-1.663v0c-0.963-0.85-1.374-1.732-1.233-2.646 0.136-0.919 0.719-1.962 1.75-3.13v0c0.502-0.569 0.971-1.025 1.408-1.368 0.441-0.339 0.897-0.594 1.367-0.764v0c0.946-0.328 1.926-0.045 2.939 0.849v0c0.584 0.515 1.148 1.124 1.691 1.826v0l0.254 0.331-0.334 0.318c-0.674-0.896-1.272-1.576-1.796-2.039-0.524-0.463-0.997-0.751-1.42-0.866-0.422-0.115-0.843-0.091-1.261 0.072-0.419 0.163-0.819 0.4-1.201 0.711-0.381 0.311-0.806 0.732-1.272 1.261-0.463 0.524-0.822 0.997-1.079 1.418-0.262 0.417-0.44 0.841-0.536 1.271v0c-0.198 0.838 0.143 1.644 1.021 2.42v0c0.484 0.427 1.145 0.895 1.983 1.404v0zM34.436 108.951l-0.414-0.222 2.071-3.852-4.828-2.595-2.071 3.852-0.413-0.223 4.345-8.081 0.413 0.222-2.061 3.834 4.828 2.596 2.061-3.835 0.414 0.223zM45.191 103.267l-2.961-0.753 0.111-0.435 6.347 1.614-0.11 0.436-2.932-0.746-2.151 8.457-0.455-0.115zM59.343 113.422l-0.744-9.145 3.134-0.256c1.758-0.143 2.698 0.538 2.821 2.044v0c0.092 1.134-0.27 1.892-1.087 2.273v0c1.106 0.21 1.706 0.9 1.801 2.067v0c0.076 0.935-0.106 1.608-0.546 2.018-0.434 0.409-1.099 0.65-1.995 0.723v0zM62.254 108.697v0l-2.806 0.229 0.327 4.01 2.915-0.237c0.723-0.059 1.268-0.257 1.635-0.594 0.366-0.344 0.518-0.897 0.456-1.66v0c-0.105-1.294-0.948-1.876-2.527-1.748zM61.77 104.469v0l-2.667 0.217 0.309 3.802 2.807-0.229c0.71-0.058 1.211-0.262 1.502-0.613 0.286-0.344 0.402-0.844 0.349-1.501-0.053-0.65-0.264-1.107-0.633-1.371-0.375-0.263-0.931-0.365-1.667-0.305zM72.074 109.795c0.321 0.293 0.702 0.459 1.141 0.495 0.434 0.039 0.947-0.04 1.542-0.235 0.594-0.196 1.053-0.432 1.375-0.707 0.329-0.277 0.536-0.626 0.622-1.047 0.092-0.423 0.095-0.88 0.01-1.37-0.077-0.486-0.236-1.096-0.478-1.829v0c-0.459-1.39-1.001-2.351-1.625-2.881-0.617-0.532-1.479-0.615-2.585-0.25v0c-1.15 0.38-1.806 0.996-1.966 1.848v0c-0.081 0.433-0.082 0.896-0.004 1.389 0.072 0.495 0.224 1.093 0.457 1.795 0.232 0.702 0.461 1.267 0.686 1.697 0.226 0.43 0.501 0.795 0.825 1.095zM71.839 110.23v0c-0.378-0.317-0.703-0.718-0.976-1.202-0.266-0.487-0.525-1.113-0.778-1.878v0c-0.503-1.523-0.637-2.734-0.4-3.632 0.242-0.9 0.992-1.558 2.25-1.974 1.264-0.418 2.257-0.339 2.98 0.236 0.725 0.581 1.344 1.649 1.857 3.203 0.516 1.561 0.654 2.763 0.414 3.607-0.242 0.837-1.014 1.471-2.317 1.901-1.308 0.432-2.318 0.345-3.03-0.261zM83.943 104.64c0.382 0.208 0.791 0.278 1.227 0.209 0.43-0.065 0.911-0.264 1.441-0.597 0.53-0.332 0.919-0.67 1.167-1.014 0.254-0.347 0.372-0.736 0.354-1.165-0.012-0.432-0.117-0.877-0.317-1.333-0.19-0.454-0.491-1.008-0.9-1.662v0c-0.778-1.241-1.532-2.044-2.265-2.411-0.726-0.37-1.583-0.245-2.57 0.374v0c-1.027 0.643-1.516 1.398-1.469 2.263v0c0.025 0.44 0.134 0.89 0.328 1.35 0.188 0.463 0.479 1.008 0.871 1.634 0.392 0.626 0.75 1.121 1.072 1.485 0.322 0.364 0.676 0.653 1.061 0.867zM83.819 105.118v0c-0.443-0.217-0.854-0.529-1.234-0.935-0.374-0.409-0.776-0.955-1.203-1.638v0c-0.852-1.359-1.27-2.503-1.256-3.432 0.021-0.932 0.592-1.75 1.715-2.453 1.128-0.707 2.111-0.868 2.95-0.482 0.842 0.391 1.698 1.281 2.568 2.668 0.873 1.393 1.294 2.528 1.261 3.405-0.036 0.871-0.634 1.67-1.796 2.398-1.168 0.732-2.169 0.888-3.005 0.469zM93.235 93.738l-1.21 1.219 3.062 3.038-0.331 0.334-6.513-6.464 0.331-0.333 3.132 3.109 1.189-1.198-1.1-5.157 0.401-0.404 1.136 5.404 5.525 0.911-0.429 0.432zM105.272 84.916l-2.909 4.503-7.707-4.979 2.909-4.503 0.377 0.244-2.654 4.109 3.203 2.07 2.227-3.447 0.369 0.238-2.227 3.447 3.38 2.183 2.655-4.109zM105.599 74.379l-1.086 2.941 3.569 1.318-0.163 0.44-8.607-3.178 1.137-3.082c0.32-0.868 0.755-1.438 1.303-1.711 0.548-0.273 1.25-0.252 2.105 0.064v0c1.449 0.535 2.07 1.438 1.862 2.71v0l4.341-0.601-0.183 0.497zM103.684 71.639v0c-0.718-0.265-1.301-0.292-1.748-0.081-0.443 0.22-0.798 0.692-1.065 1.416v0l-0.975 2.641 4.205 1.553 0.975-2.641c0.514-1.392 0.05-2.355-1.392-2.888zM1.112 57.976c0-1.936 1.569-3.505 3.505-3.505 1.936 0 3.505 1.569 3.506 3.505 0 1.936-1.569 3.505-3.506 3.505-1.936 0-3.505-1.569-3.505-3.505zM105.299 57.976c0-1.936 1.569-3.505 3.506-3.505 1.936 0 3.505 1.569 3.505 3.505 0 1.936-1.569 3.505-3.505 3.505-1.936 0-3.505-1.569-3.506-3.505z" fill="#fff" data-fill-palette-color="accent"></path></svg></g></svg></g></svg></g></svg><rect width="395.52" height="84.06989882452544" fill="none" stroke="none" visibility="hidden"></rect></g></svg></g></svg>
